<?xml version="1.0" standalone="no"?>
<!DOCTYPE svg PUBLIC "-//W3C//DTD SVG 20010904//EN"
 "http://www.w3.org/TR/2001/REC-SVG-20010904/DTD/svg10.dtd">
<svg version="1.0" xmlns="http://www.w3.org/2000/svg"
 width="512.000000pt" height="512.000000pt" viewBox="0 0 512.000000 512.000000"
 preserveAspectRatio="xMidYMid meet">

<g transform="translate(0.000000,512.000000) scale(0.100000,-0.100000)"
fill="#000000" stroke="none">
<path d="M280 4113 c-127 -12 -238 -25 -257 -30 l-23 -5 0 -1059 0 -1059 135
0 135 0 0 430 c0 338 3 430 13 430 6 -1 57 -5 112 -10 203 -19 406 16 574 96
174 85 298 239 336 419 17 83 19 228 4 311 -13 70 -64 184 -106 236 -102 126
-268 209 -476 237 -72 10 -362 13 -447 4z m412 -214 c265 -54 381 -212 356
-488 -5 -55 -15 -91 -42 -147 -60 -120 -160 -191 -323 -228 -84 -19 -257 -21
-350 -5 l-63 11 0 423 0 424 48 6 c26 4 52 8 57 10 25 8 269 4 317 -6z"/>
<path d="M4070 4113 c-140 -13 -238 -25 -252 -29 -17 -5 -18 -64 -18 -1065 l0
-1059 130 0 130 0 0 430 c0 338 3 430 13 430 6 -1 57 -5 112 -10 120 -11 288
1 400 30 44 11 123 41 175 66 76 38 110 62 171 123 126 126 179 262 179 460 0
129 -19 211 -67 304 -89 168 -262 276 -502 312 -87 14 -370 18 -471 8z m412
-214 c265 -54 387 -219 357 -484 -10 -85 -29 -141 -68 -199 -63 -91 -164 -152
-302 -181 -83 -18 -256 -20 -346 -4 l-63 11 0 423 0 424 48 6 c26 4 52 8 57
10 25 8 269 4 317 -6z"/>
<path d="M1710 3035 l0 -1075 135 0 135 0 0 505 0 505 525 0 525 0 0 -505 0
-505 135 0 135 0 0 1075 0 1075 -135 0 -135 0 0 -455 0 -455 -525 0 -525 0 0
455 0 455 -135 0 -135 0 0 -1075z"/>
</g>
</svg>
